<mxfile host="app.diagrams.net" modified="2023-06-14T21:14:29.860Z" agent="Mozilla/5.0 (Windows NT 10.0; Win64; x64) AppleWebKit/537.36 (KHTML, like Gecko) Chrome/114.0.0.0 Safari/537.36 Edg/114.0.1823.43" etag="7G4Qv0vIjmvWd6ghyelC" version="21.3.8" type="device">
  <diagram name="Sivu-1" id="F7t0V3OibmkTzIS3V1bG">
    <mxGraphModel dx="1434" dy="756" grid="1" gridSize="10" guides="1" tooltips="1" connect="1" arrows="1" fold="1" page="1" pageScale="1" pageWidth="827" pageHeight="1169" math="0" shadow="0">
      <root>
        <mxCell id="0" />
        <mxCell id="1" parent="0" />
        <mxCell id="e3fMuOFuvp5VZsh43DBf-2" value="" style="rounded=0;whiteSpace=wrap;html=1;" vertex="1" parent="1">
          <mxGeometry x="39" y="235" width="750" height="510" as="geometry" />
        </mxCell>
        <mxCell id="e3fMuOFuvp5VZsh43DBf-3" value="" style="rounded=0;whiteSpace=wrap;html=1;" vertex="1" parent="1">
          <mxGeometry x="80" y="310" width="190" height="330" as="geometry" />
        </mxCell>
        <mxCell id="e3fMuOFuvp5VZsh43DBf-4" value="massa" style="rounded=0;whiteSpace=wrap;html=1;" vertex="1" parent="1">
          <mxGeometry x="100" y="330" width="90" height="20" as="geometry" />
        </mxCell>
        <mxCell id="e3fMuOFuvp5VZsh43DBf-5" value="koko pituus&lt;span style=&quot;white-space: pre;&quot;&gt;&#x9;&lt;/span&gt;" style="rounded=0;whiteSpace=wrap;html=1;" vertex="1" parent="1">
          <mxGeometry x="100" y="360" width="90" height="20" as="geometry" />
        </mxCell>
        <mxCell id="e3fMuOFuvp5VZsh43DBf-6" value="montavoimaa" style="rounded=0;whiteSpace=wrap;html=1;" vertex="1" parent="1">
          <mxGeometry x="100" y="390" width="90" height="20" as="geometry" />
        </mxCell>
        <mxCell id="e3fMuOFuvp5VZsh43DBf-7" value="voima1" style="rounded=0;whiteSpace=wrap;html=1;" vertex="1" parent="1">
          <mxGeometry x="100" y="420" width="90" height="20" as="geometry" />
        </mxCell>
        <mxCell id="e3fMuOFuvp5VZsh43DBf-8" value="lis채voima" style="rounded=0;whiteSpace=wrap;html=1;" vertex="1" parent="1">
          <mxGeometry x="100" y="450" width="90" height="20" as="geometry" />
        </mxCell>
        <mxCell id="e3fMuOFuvp5VZsh43DBf-9" value="lis채voima" style="rounded=0;whiteSpace=wrap;html=1;" vertex="1" parent="1">
          <mxGeometry x="100" y="480" width="90" height="20" as="geometry" />
        </mxCell>
        <mxCell id="e3fMuOFuvp5VZsh43DBf-12" value="jne" style="rounded=0;whiteSpace=wrap;html=1;" vertex="1" parent="1">
          <mxGeometry x="100" y="510" width="90" height="20" as="geometry" />
        </mxCell>
        <mxCell id="e3fMuOFuvp5VZsh43DBf-13" value="" style="rounded=0;whiteSpace=wrap;html=1;" vertex="1" parent="1">
          <mxGeometry x="310" y="310" width="450" height="360" as="geometry" />
        </mxCell>
        <mxCell id="e3fMuOFuvp5VZsh43DBf-14" value="T채h채n piirros/mallinnus/hahmotus" style="rounded=0;whiteSpace=wrap;html=1;" vertex="1" parent="1">
          <mxGeometry x="350" y="350" width="390" height="160" as="geometry" />
        </mxCell>
        <mxCell id="e3fMuOFuvp5VZsh43DBf-15" value="tuloksia/kaavoja/yms omissa ikkunoissa arvojen tapaan" style="rounded=0;whiteSpace=wrap;html=1;" vertex="1" parent="1">
          <mxGeometry x="350" y="530" width="390" height="110" as="geometry" />
        </mxCell>
        <mxCell id="e3fMuOFuvp5VZsh43DBf-16" value="arvoja" style="rounded=0;whiteSpace=wrap;html=1;" vertex="1" parent="1">
          <mxGeometry x="125" y="270" width="65" height="20" as="geometry" />
        </mxCell>
        <mxCell id="e3fMuOFuvp5VZsh43DBf-17" value="tulosruutu/vastaava" style="rounded=0;whiteSpace=wrap;html=1;" vertex="1" parent="1">
          <mxGeometry x="450" y="270" width="156" height="20" as="geometry" />
        </mxCell>
      </root>
    </mxGraphModel>
  </diagram>
</mxfile>
